<svg xmlns="http://www.w3.org/2000/svg" viewBox="0 0 1600 900" preserveAspectRatio="xMidYMid slice"><defs><linearGradient id="sky" x1="0" y1="0" x2="0" y2="1"><stop offset="0" stop-color="#050916"/><stop offset=".45" stop-color="#0C1B3F"/><stop offset=".75" stop-color="#2A3D6E"/><stop offset=".9" stop-color="#7A5A62"/><stop offset="1" stop-color="#C98A55"/></linearGradient><radialGradient id="ch" cx=".5" cy=".5" r=".5"><stop offset="0" stop-color="#F8E3B6" stop-opacity="0.4"/><stop offset=".55" stop-color="#F8E3B6" stop-opacity="0.10"/><stop offset="1" stop-color="#F8E3B6" stop-opacity="0"/></radialGradient></defs><rect width="1600" height="900" fill="url(#sky)"/><g fill="#fff"><circle cx="1314" cy="167" r="1.61" opacity="0.53"/><circle cx="1595" cy="291" r="1.52" opacity="0.27"/><circle cx="413" cy="344" r="0.71" opacity="0.68"/><circle cx="588" cy="566" r="1.41" opacity="0.39"/><circle cx="1216" cy="315" r="1.06" opacity="0.88"/><circle cx="1578" cy="593" r="1.48" opacity="0.66"/><circle cx="26" cy="313" r="0.74" opacity="0.92"/><circle cx="286" cy="258" r="0.64" opacity="0.78"/><circle cx="1030" cy="388" r="1.48" opacity="0.9"/><circle cx="673" cy="63" r="1.2" opacity="0.64"/><circle cx="1373" cy="162" r="1.2" opacity="0.4"/><circle cx="1566" cy="39" r="1.14" opacity="0.67"/><circle cx="1571" cy="397" r="0.85" opacity="0.59"/><circle cx="1256" cy="81" r="1.65" opacity="0.26"/><circle cx="1057" cy="488" r="1.17" opacity="0.6"/><circle cx="1535" cy="204" r="1.3" opacity="0.76"/><circle cx="765" cy="12" r="0.84" opacity="0.8"/><circle cx="1371" cy="278" r="1.19" opacity="0.71"/><circle cx="1097" cy="398" r="1.39" opacity="0.48"/><circle cx="970" cy="4" r="1.54" opacity="0.4"/><circle cx="660" cy="38" r="0.89" opacity="0.28"/><circle cx="775" cy="385" r="0.67" opacity="0.83"/><circle cx="439" cy="532" r="1.21" opacity="0.25"/><circle cx="1067" cy="313" r="1.44" opacity="0.33"/><circle cx="909" cy="463" r="1.24" opacity="0.68"/><circle cx="1230" cy="115" r="1.2" opacity="0.7"/><circle cx="247" cy="377" r="0.75" opacity="0.91"/><circle cx="1574" cy="85" r="1.18" opacity="0.85"/><circle cx="1050" cy="435" r="1.67" opacity="0.82"/><circle cx="570" cy="572" r="1.08" opacity="0.31"/><circle cx="1287" cy="139" r="0.69" opacity="0.82"/><circle cx="147" cy="340" r="1.13" opacity="0.26"/><circle cx="133" cy="378" r="0.86" opacity="0.34"/><circle cx="297" cy="341" r="0.6" opacity="0.78"/><circle cx="51" cy="363" r="1.31" opacity="0.29"/><circle cx="265" cy="13" r="0.57" opacity="0.62"/><circle cx="699" cy="238" r="1.6" opacity="0.59"/><circle cx="163" cy="416" r="1.09" opacity="0.87"/><circle cx="800" cy="481" r="1.41" opacity="0.77"/><circle cx="480" cy="441" r="1.41" opacity="0.34"/><circle cx="282" cy="516" r="0.78" opacity="0.79"/><circle cx="92" cy="166" r="1.62" opacity="0.37"/><circle cx="59" cy="251" r="0.76" opacity="0.9"/><circle cx="1255" cy="605" r="1.31" opacity="0.39"/><circle cx="694" cy="286" r="0.92" opacity="0.76"/><circle cx="48" cy="160" r="0.7" opacity="0.77"/><circle cx="1402" cy="68" r="0.51" opacity="0.42"/><circle cx="231" cy="499" r="1.51" opacity="0.44"/><circle cx="655" cy="166" r="0.77" opacity="0.79"/><circle cx="753" cy="396" r="1.61" opacity="0.44"/><circle cx="1361" cy="137" r="1.36" opacity="0.85"/><circle cx="336" cy="294" r="0.76" opacity="0.4"/><circle cx="913" cy="197" r="1.31" opacity="0.46"/><circle cx="105" cy="79" r="0.86" opacity="0.76"/><circle cx="1109" cy="267" r="1.18" opacity="0.42"/><circle cx="35" cy="536" r="1.42" opacity="0.48"/><circle cx="1193" cy="374" r="1.52" opacity="0.33"/><circle cx="336" cy="377" r="1.6" opacity="0.86"/><circle cx="315" cy="228" r="0.77" opacity="0.37"/><circle cx="1555" cy="450" r="1.62" opacity="0.63"/><circle cx="369" cy="293" r="0.69" opacity="0.64"/><circle cx="890" cy="582" r="0.73" opacity="0.9"/><circle cx="78" cy="345" r="0.8" opacity="0.94"/><circle cx="1573" cy="339" r="1.63" opacity="0.27"/><circle cx="926" cy="124" r="1.09" opacity="0.68"/><circle cx="622" cy="628" r="0.53" opacity="0.65"/><circle cx="346" cy="671" r="1.45" opacity="0.72"/><circle cx="1439" cy="178" r="1.59" opacity="0.71"/><circle cx="460" cy="235" r="0.84" opacity="0.32"/><circle cx="829" cy="48" r="0.84" opacity="0.31"/><circle cx="803" cy="446" r="1.23" opacity="0.8"/><circle cx="1393" cy="83" r="1.47" opacity="0.44"/><circle cx="628" cy="338" r="0.77" opacity="0.32"/><circle cx="466" cy="633" r="0.54" opacity="0.33"/><circle cx="944" cy="288" r="0.99" opacity="0.33"/><circle cx="176" cy="432" r="1.57" opacity="0.54"/><circle cx="1228" cy="526" r="0.66" opacity="0.57"/><circle cx="600" cy="9" r="0.67" opacity="0.3"/><circle cx="1312" cy="599" r="0.75" opacity="0.5"/><circle cx="242" cy="31" r="1.18" opacity="0.72"/><circle cx="957" cy="302" r="1.22" opacity="0.53"/><circle cx="1359" cy="560" r="1.02" opacity="0.39"/><circle cx="188" cy="164" r="1.18" opacity="0.57"/><circle cx="2" cy="125" r="0.99" opacity="0.61"/><circle cx="1471" cy="167" r="1.28" opacity="0.43"/><circle cx="675" cy="550" r="1.38" opacity="0.81"/><circle cx="20" cy="54" r="1.38" opacity="0.29"/><circle cx="34" cy="393" r="1.18" opacity="0.37"/><circle cx="501" cy="24" r="0.76" opacity="0.6"/><circle cx="1138" cy="214" r="1.18" opacity="0.94"/><circle cx="381" cy="199" r="0.6" opacity="0.42"/><circle cx="1093" cy="345" r="0.72" opacity="0.81"/><circle cx="468" cy="112" r="0.8" opacity="0.52"/><circle cx="899" cy="11" r="1.43" opacity="0.79"/><circle cx="10" cy="319" r="1.21" opacity="0.56"/><circle cx="1455" cy="38" r="1.64" opacity="0.65"/><circle cx="211" cy="174" r="0.63" opacity="0.25"/><circle cx="79" cy="44" r="1.22" opacity="0.38"/><circle cx="784" cy="251" r="1.09" opacity="0.45"/><circle cx="1505" cy="363" r="0.95" opacity="0.55"/><circle cx="705" cy="157" r="1.02" opacity="0.4"/><circle cx="844" cy="256" r="0.78" opacity="0.26"/><circle cx="70" cy="235" r="1.18" opacity="0.39"/><circle cx="539" cy="97" r="0.72" opacity="0.54"/><circle cx="1002" cy="648" r="1.09" opacity="0.92"/><circle cx="1452" cy="341" r="1.39" opacity="0.82"/><circle cx="1299" cy="336" r="1.14" opacity="0.7"/><circle cx="222" cy="672" r="1.43" opacity="0.56"/><circle cx="973" cy="30" r="1.28" opacity="0.69"/><circle cx="1363" cy="142" r="0.56" opacity="0.34"/><circle cx="1297" cy="11" r="1.32" opacity="0.44"/><circle cx="694" cy="70" r="0.67" opacity="0.78"/><circle cx="1517" cy="391" r="1.47" opacity="0.89"/><circle cx="485" cy="506" r="1.29" opacity="0.33"/><circle cx="1399" cy="106" r="0.81" opacity="0.51"/><circle cx="1272" cy="119" r="1.01" opacity="0.83"/><circle cx="1161" cy="165" r="0.6" opacity="0.41"/><circle cx="603" cy="205" r="1.28" opacity="0.73"/><circle cx="13" cy="149" r="1.61" opacity="0.34"/><circle cx="909" cy="109" r="1.68" opacity="0.78"/><circle cx="892" cy="576" r="0.87" opacity="0.88"/><circle cx="830" cy="117" r="1.06" opacity="0.25"/><circle cx="1221" cy="222" r="1.48" opacity="0.56"/><circle cx="1553" cy="285" r="1.3" opacity="0.9"/><circle cx="383" cy="124" r="1.14" opacity="0.49"/><circle cx="1235" cy="216" r="0.64" opacity="0.91"/><circle cx="752" cy="4" r="1.57" opacity="0.6"/><circle cx="402" cy="627" r="1.46" opacity="0.51"/><circle cx="1101" cy="99" r="0.93" opacity="0.88"/><circle cx="951" cy="106" r="1.14" opacity="0.8"/><circle cx="1217" cy="356" r="0.98" opacity="0.54"/><circle cx="581" cy="636" r="0.97" opacity="0.28"/><circle cx="1355" cy="233" r="1.44" opacity="0.42"/><circle cx="1382" cy="234" r="0.73" opacity="0.67"/><circle cx="67" cy="15" r="1.39" opacity="0.67"/><circle cx="1161" cy="406" r="1.15" opacity="0.76"/><circle cx="552" cy="552" r="1.37" opacity="0.48"/><circle cx="849" cy="341" r="0.56" opacity="0.31"/><circle cx="1021" cy="264" r="1.45" opacity="0.46"/><circle cx="688" cy="59" r="1.64" opacity="0.86"/><circle cx="1055" cy="335" r="0.77" opacity="0.43"/><circle cx="332" cy="277" r="1.33" opacity="0.78"/><circle cx="447" cy="313" r="0.84" opacity="0.5"/><circle cx="131" cy="51" r="1.31" opacity="0.84"/><circle cx="1408" cy="147" r="1.14" opacity="0.75"/><circle cx="1157" cy="297" r="1.26" opacity="0.69"/><circle cx="1167" cy="10" r="0.92" opacity="0.71"/><circle cx="1086" cy="226" r="0.52" opacity="0.85"/><circle cx="1309" cy="231" r="0.65" opacity="0.84"/><circle cx="704" cy="102" r="1.2" opacity="0.33"/><circle cx="816" cy="69" r="1.15" opacity="0.71"/><circle cx="413" cy="95" r="0.68" opacity="0.37"/><circle cx="1023" cy="281" r="1.17" opacity="0.83"/><circle cx="1289" cy="466" r="1.09" opacity="0.64"/><circle cx="887" cy="121" r="1.06" opacity="0.78"/><circle cx="84" cy="147" r="1.22" opacity="0.45"/><circle cx="1600" cy="467" r="0.54" opacity="0.55"/><circle cx="1123" cy="243" r="0.96" opacity="0.75"/><circle cx="744" cy="294" r="1.47" opacity="0.83"/><circle cx="1148" cy="254" r="1.32" opacity="0.65"/><circle cx="909" cy="457" r="0.56" opacity="0.46"/><circle cx="1087" cy="125" r="1.38" opacity="0.67"/><circle cx="331" cy="342" r="1.07" opacity="0.8"/><circle cx="258" cy="187" r="0.9" opacity="0.33"/><circle cx="1190" cy="181" r="0.7" opacity="0.41"/><circle cx="1000" cy="138" r="0.94" opacity="0.5"/><circle cx="992" cy="104" r="0.91" opacity="0.9"/><circle cx="1352" cy="609" r="0.55" opacity="0.67"/><circle cx="104" cy="379" r="1.56" opacity="0.35"/><circle cx="532" cy="191" r="0.56" opacity="0.42"/><circle cx="1165" cy="170" r="0.98" opacity="0.94"/><circle cx="318" cy="301" r="0.87" opacity="0.36"/><circle cx="1394" cy="442" r="1.2" opacity="0.37"/><circle cx="453" cy="517" r="0.6" opacity="0.35"/><circle cx="1180" cy="51" r="1.54" opacity="0.51"/><circle cx="808" cy="445" r="1.11" opacity="0.81"/><circle cx="253" cy="295" r="0.77" opacity="0.45"/><circle cx="59" cy="95" r="0.56" opacity="0.88"/><circle cx="5" cy="10" r="1.64" opacity="0.75"/><circle cx="465" cy="430" r="0.81" opacity="0.63"/><circle cx="70" cy="343" r="0.75" opacity="0.84"/><circle cx="264" cy="127" r="1.26" opacity="0.67"/><circle cx="1324" cy="465" r="0.63" opacity="0.38"/><circle cx="1144" cy="492" r="1.53" opacity="0.66"/><circle cx="1140" cy="141" r="0.77" opacity="0.4"/><circle cx="1425" cy="227" r="1.33" opacity="0.8"/><circle cx="1414" cy="108" r="0.73" opacity="0.42"/><circle cx="406" cy="112" r="1.67" opacity="0.93"/><circle cx="1213" cy="307" r="1.36" opacity="0.92"/><circle cx="199" cy="413" r="1.53" opacity="0.67"/><circle cx="953" cy="554" r="0.74" opacity="0.38"/><circle cx="102" cy="376" r="0.96" opacity="0.72"/><circle cx="27" cy="540" r="1.27" opacity="0.9"/><circle cx="526" cy="297" r="1.38" opacity="0.41"/><circle cx="997" cy="222" r="1.32" opacity="0.7"/><circle cx="583" cy="267" r="1.32" opacity="0.67"/><circle cx="58" cy="109" r="1.66" opacity="0.72"/><circle cx="1114" cy="268" r="1.23" opacity="0.64"/><circle cx="1587" cy="294" r="1.39" opacity="0.8"/><circle cx="1057" cy="555" r="1.48" opacity="0.55"/><circle cx="1020" cy="31" r="1.38" opacity="0.3"/><circle cx="1038" cy="489" r="1.27" opacity="0.73"/><circle cx="360" cy="151" r="1.07" opacity="0.72"/><circle cx="110" cy="409" r="1.65" opacity="0.69"/><circle cx="50" cy="138" r="1.31" opacity="0.9"/><circle cx="115" cy="280" r="1.35" opacity="0.79"/><circle cx="1593" cy="380" r="0.77" opacity="0.61"/><circle cx="1158" cy="366" r="1.24" opacity="0.34"/><circle cx="1006" cy="343" r="1.52" opacity="0.69"/><circle cx="813" cy="324" r="1.3" opacity="0.36"/><circle cx="1292" cy="258" r="1.27" opacity="0.47"/><circle cx="1186" cy="88" r="0.85" opacity="0.36"/><circle cx="43" cy="134" r="1.02" opacity="0.31"/><circle cx="390" cy="223" r="0.56" opacity="0.9"/><circle cx="45" cy="166" r="1.25" opacity="0.42"/><circle cx="1467" cy="517" r="1.45" opacity="0.35"/><circle cx="594" cy="224" r="0.54" opacity="0.73"/><circle cx="159" cy="230" r="1.62" opacity="0.44"/><circle cx="1192" cy="224" r="1.64" opacity="0.73"/><circle cx="97" cy="159" r="1.09" opacity="0.67"/><circle cx="723" cy="403" r="1.65" opacity="0.38"/><circle cx="250" cy="159" r="1.5" opacity="0.65"/><circle cx="177" cy="417" r="1.45" opacity="0.93"/></g><path d="M744 181 L744 193 M738 187 L750 187" stroke="#fff" stroke-opacity=".55" stroke-width="1"/><circle cx="744" cy="187" r="2" fill="#fff" opacity=".9"/><path d="M1357 25 L1357 41 M1349 33 L1365 33" stroke="#fff" stroke-opacity=".55" stroke-width="1"/><circle cx="1357" cy="33" r="2" fill="#fff" opacity=".9"/><path d="M1405 56 L1405 72 M1397 64 L1414 64" stroke="#fff" stroke-opacity=".55" stroke-width="1"/><circle cx="1405" cy="64" r="2" fill="#fff" opacity=".9"/><path d="M977 40 L977 54 M970 47 L985 47" stroke="#fff" stroke-opacity=".55" stroke-width="1"/><circle cx="977" cy="47" r="2" fill="#fff" opacity=".9"/><path d="M1109 210 L1109 229 M1100 220 L1119 220" stroke="#fff" stroke-opacity=".55" stroke-width="1"/><circle cx="1109" cy="220" r="2" fill="#fff" opacity=".9"/><circle cx="330" cy="520" r="170" fill="url(#ch)"/><g transform="rotate(22 330 520)"><mask id="mcontact"><circle cx="330" cy="520" r="44" fill="#fff"/><circle cx="330" cy="507.2" r="41.4" fill="#000"/></mask><circle cx="330" cy="520" r="44" fill="#FFF3D6" mask="url(#mcontact)"/><circle cx="330" cy="520" r="43.3" fill="none" stroke="#FFF3D6" stroke-opacity=".10"/></g><path d="M0 830 C 260 790, 520 850, 820 820 S 1300 780, 1600 815 L1600 900 L0 900 Z" fill="#070C1C"/></svg>